<mxfile host="app.diagrams.net" modified="2024-06-12T23:51:36.319Z" agent="Mozilla/5.0 (Windows NT 10.0; Win64; x64; rv:126.0) Gecko/20100101 Firefox/126.0" etag="3GMmqTf-nFht-wteoFMz" version="24.5.4" type="device">
  <diagram name="Page-1" id="gMH7nCZFFYPsJrvKu031">
    <mxGraphModel dx="1434" dy="754" grid="1" gridSize="10" guides="1" tooltips="1" connect="1" arrows="1" fold="1" page="1" pageScale="1" pageWidth="827" pageHeight="1169" math="0" shadow="0">
      <root>
        <mxCell id="0" />
        <mxCell id="1" parent="0" />
        <mxCell id="57YXxxvV42UXPth9fQ7E-5" style="edgeStyle=orthogonalEdgeStyle;rounded=0;orthogonalLoop=1;jettySize=auto;html=1;entryX=0.5;entryY=0;entryDx=0;entryDy=0;" edge="1" parent="1" source="57YXxxvV42UXPth9fQ7E-1" target="57YXxxvV42UXPth9fQ7E-4">
          <mxGeometry relative="1" as="geometry" />
        </mxCell>
        <mxCell id="57YXxxvV42UXPth9fQ7E-1" value="Ouverture et lecture du fichier" style="ellipse;whiteSpace=wrap;html=1;" vertex="1" parent="1">
          <mxGeometry x="340" y="110" width="200" height="80" as="geometry" />
        </mxCell>
        <mxCell id="57YXxxvV42UXPth9fQ7E-7" style="edgeStyle=orthogonalEdgeStyle;rounded=0;orthogonalLoop=1;jettySize=auto;html=1;entryX=0.5;entryY=0;entryDx=0;entryDy=0;" edge="1" parent="1" source="57YXxxvV42UXPth9fQ7E-4" target="57YXxxvV42UXPth9fQ7E-6">
          <mxGeometry relative="1" as="geometry" />
        </mxCell>
        <mxCell id="57YXxxvV42UXPth9fQ7E-4" value="Écriture du fichier chiffré dans un fichier temporaire" style="ellipse;whiteSpace=wrap;html=1;" vertex="1" parent="1">
          <mxGeometry x="340" y="220" width="200" height="80" as="geometry" />
        </mxCell>
        <mxCell id="57YXxxvV42UXPth9fQ7E-6" value="Lecture du fichier temporaire et écriture dans le fichier original" style="ellipse;whiteSpace=wrap;html=1;" vertex="1" parent="1">
          <mxGeometry x="340" y="330" width="200" height="80" as="geometry" />
        </mxCell>
      </root>
    </mxGraphModel>
  </diagram>
</mxfile>
